<svg width="800" height="800" viewBox="0 0 800 800" fill="none" xmlns="http://www.w3.org/2000/svg">
<path d="M399.572 787.629C386.612 787.739 373.874 784.258 362.772 777.572L224.029 696.429C172.088 667.381 128.737 625.136 98.3547 573.964C67.9728 522.793 51.6377 464.508 51.0001 405V183.286C51.0063 168.345 55.5877 153.765 64.1282 141.506C72.6687 129.247 84.7585 119.897 98.7716 114.714L374.429 13.4572C390.664 7.51425 408.479 7.51425 424.714 13.4572L700.372 114.714C714.385 119.897 726.474 129.247 735.015 141.506C743.555 153.765 748.137 168.345 748.143 183.286V405C747.505 464.508 731.17 522.793 700.788 573.964C670.407 625.136 627.055 667.381 575.114 696.429L436.372 777.572C425.269 784.258 412.532 787.739 399.572 787.629ZM399.572 66.2572C397.758 65.9271 395.9 65.9271 394.086 66.2572L118.429 167.972C115.324 169.121 112.659 171.219 110.813 173.968C108.967 176.717 108.033 179.977 108.143 183.286V405C108.806 454.515 122.535 502.976 147.942 545.481C173.348 587.986 209.531 623.027 252.829 647.057L391.572 728.429C394.025 729.769 396.776 730.472 399.572 730.472C402.367 730.472 405.118 729.769 407.572 728.429L546.314 647.057C589.612 623.027 625.795 587.986 651.201 545.481C676.608 502.976 690.337 454.515 691 405V183.286C691.015 180.054 690.036 176.895 688.196 174.238C686.356 171.581 683.745 169.553 680.714 168.429L405.057 67.1715C403.3 66.5345 401.441 66.2246 399.572 66.2572Z" fill="#FFFFFF"/>
<path d="M349.875 200C318.278 200 292.69 222.939 286.293 252.727C247.717 259.64 217.542 291.819 217.542 332.333C217.542 336.404 217.994 340.023 218.576 343.706C207.914 359.407 201 377.888 201 398.5C201 428.223 215.797 453.23 236.668 471.387C235.182 477.267 234.083 483.147 234.083 489.479C234.083 530.381 267.619 563.917 308.521 563.917C308.973 563.917 309.167 563.917 309.555 563.917C319.182 582.591 335.853 597 358.146 597C374.3 597 388.968 590.215 399.5 579.424C410.032 590.215 424.7 597 440.854 597C463.147 597 479.818 582.591 489.445 563.917C489.833 563.917 490.027 563.917 490.479 563.917C529.313 563.917 561.169 533.676 564.4 495.682H564.917C564.917 494.648 564.464 493.615 564.4 492.581C564.464 491.547 564.917 490.513 564.917 489.479C564.917 483.341 562.72 478.107 561.298 472.421C582.751 454.199 598 428.74 598 398.5C598 377.888 591.086 359.407 580.424 343.706C581.006 340.023 581.458 336.404 581.458 332.333C581.458 291.819 551.283 259.64 512.707 252.727C506.31 222.939 480.722 200 449.125 200C429.288 200 411.648 209.24 399.5 223.262C387.352 209.24 369.712 200 349.875 200ZM349.875 233.083C368.355 233.083 382.958 247.687 382.958 266.167V299.25C382.958 326.841 360.924 348.875 333.333 348.875V381.958C352.072 381.958 369.066 375.497 382.958 364.9V539.104C382.958 552.997 372.038 563.917 358.146 563.917C345.804 563.917 335.918 555.387 333.85 543.756L330.749 527.732L314.724 530.316C311.816 530.769 310.007 530.833 308.521 530.833C285.518 530.833 267.167 512.482 267.167 489.479C267.167 484.374 268.007 479.593 269.751 475.005C269.881 474.618 270.139 474.359 270.268 473.971C275.373 461.242 286.487 451.937 300.25 449.159L293.53 416.592C276.277 420.082 261.287 429.257 250.625 442.439C240.222 430.808 234.083 415.429 234.083 398.5C234.083 382.992 239.382 369.164 248.557 357.663L253.727 351.46L252.176 343.189C251.271 339.312 250.625 335.887 250.625 332.333C250.625 304.742 272.659 282.708 300.25 282.708H316.792V266.167C316.792 247.687 331.395 233.083 349.875 233.083ZM449.125 233.083C467.605 233.083 482.208 247.687 482.208 266.167V282.708H498.75C526.341 282.708 548.375 304.742 548.375 332.333C548.375 335.887 547.729 339.312 546.824 343.189L545.273 351.46L550.443 357.663C559.618 369.164 564.917 382.992 564.917 398.5C564.917 418.337 556.452 436.042 542.689 448.125C531.381 438.11 516.972 431.583 500.818 431.583C485.181 431.583 471.094 437.14 459.98 446.574L481.174 471.904C486.538 467.381 493.128 464.667 500.818 464.667C516.778 464.667 529.507 476.621 531.316 492.064C529.959 513.839 512.578 530.833 490.479 530.833C488.993 530.833 487.184 530.769 484.276 530.316L468.251 527.732L465.15 543.756C463.082 555.387 453.196 563.917 440.854 563.917C426.962 563.917 416.042 552.997 416.042 539.104V364.9C429.934 375.497 446.928 381.958 465.667 381.958V348.875C438.076 348.875 416.042 326.841 416.042 299.25V266.167C416.042 247.687 430.645 233.083 449.125 233.083Z" fill="#FFFFFF"/>
</svg>
