<svg width="1000" height="1000" viewBox="0 0 1000 1000" fill="none" xmlns="http://www.w3.org/2000/svg">
<path d="M499.679 669.722C489.959 669.804 480.406 667.194 472.079 662.179L368.022 601.322C329.066 579.536 296.552 547.852 273.766 509.473C250.98 471.095 238.728 427.381 238.25 382.75V216.464C238.255 205.259 241.691 194.323 248.096 185.129C254.502 175.935 263.569 168.923 274.079 165.036L480.822 89.0929C492.998 84.6357 506.36 84.6357 518.536 89.0929L725.279 165.036C735.789 168.923 744.856 175.935 751.261 185.129C757.667 194.323 761.103 205.259 761.107 216.464V382.75C760.629 427.381 748.378 471.095 725.591 509.473C702.805 547.852 670.291 579.536 631.336 601.322L527.279 662.179C518.952 667.194 509.399 669.804 499.679 669.722ZM499.679 128.693C498.318 128.445 496.925 128.445 495.564 128.693L288.822 204.979C286.493 205.841 284.495 207.414 283.11 209.476C281.725 211.537 281.025 213.982 281.107 216.464V382.75C281.604 419.886 291.901 456.232 310.956 488.111C330.011 519.99 357.148 546.27 389.622 564.293L493.679 625.322C495.519 626.327 497.582 626.854 499.679 626.854C501.775 626.854 503.839 626.327 505.679 625.322L609.736 564.293C642.209 546.27 669.346 519.99 688.401 488.111C707.456 456.232 717.753 419.886 718.25 382.75V216.464C718.261 214.04 717.527 211.672 716.147 209.679C714.767 207.686 712.809 206.165 710.536 205.322L503.793 129.379C502.475 128.901 501.08 128.668 499.679 128.693Z" fill="#5500FF"/>
<path d="M462.406 229C438.708 229 419.517 246.204 414.72 268.545C385.788 273.73 363.156 297.864 363.156 328.25C363.156 331.303 363.495 334.017 363.932 336.779C355.935 348.556 350.75 362.416 350.75 377.875C350.75 400.167 361.848 418.922 377.501 432.54C376.386 436.95 375.562 441.36 375.562 446.109C375.562 476.786 400.714 501.938 431.391 501.938C431.73 501.938 431.875 501.938 432.166 501.938C439.387 515.943 451.89 526.75 468.609 526.75C480.725 526.75 491.726 521.662 499.625 513.568C507.524 521.662 518.525 526.75 530.641 526.75C547.36 526.75 559.863 515.943 567.084 501.938C567.375 501.938 567.52 501.938 567.859 501.938C596.985 501.938 620.877 479.257 623.3 450.762H623.688C623.688 449.986 623.348 449.211 623.3 448.436C623.348 447.66 623.688 446.885 623.688 446.109C623.688 441.505 622.04 437.58 620.974 433.315C637.063 419.649 648.5 400.555 648.5 377.875C648.5 362.416 643.315 348.556 635.318 336.779C635.755 334.017 636.094 331.303 636.094 328.25C636.094 297.864 613.462 273.73 584.53 268.545C579.733 246.204 560.542 229 536.844 229C521.966 229 508.736 235.93 499.625 246.446C490.514 235.93 477.284 229 462.406 229ZM462.406 253.812C476.266 253.812 487.219 264.765 487.219 278.625V303.438C487.219 324.131 470.693 340.656 450 340.656V365.469C464.054 365.469 476.799 360.623 487.219 352.675V483.328C487.219 493.747 479.029 501.938 468.609 501.938C459.353 501.938 451.938 495.541 450.388 486.817L448.062 474.799L436.043 476.737C433.862 477.077 432.505 477.125 431.391 477.125C414.138 477.125 400.375 463.362 400.375 446.109C400.375 442.281 401.005 438.695 402.313 435.254C402.41 434.963 402.604 434.769 402.701 434.479C406.53 424.932 414.865 417.953 425.188 415.869L420.147 391.444C407.208 394.061 395.965 400.943 387.969 410.829C380.166 402.106 375.562 390.572 375.562 377.875C375.562 366.244 379.536 355.873 386.418 347.247L390.295 342.595L389.132 336.392C388.453 333.484 387.969 330.915 387.969 328.25C387.969 307.557 404.494 291.031 425.188 291.031H437.594V278.625C437.594 264.765 448.546 253.812 462.406 253.812ZM536.844 253.812C550.704 253.812 561.656 264.765 561.656 278.625V291.031H574.062C594.756 291.031 611.281 307.557 611.281 328.25C611.281 330.915 610.797 333.484 610.118 336.392L608.955 342.595L612.832 347.247C619.714 355.873 623.688 366.244 623.688 377.875C623.688 392.753 617.339 406.031 607.017 415.094C598.536 407.582 587.729 402.688 575.613 402.688C563.886 402.688 553.321 406.855 544.985 413.931L560.881 432.928C564.903 429.535 569.846 427.5 575.613 427.5C587.583 427.5 597.13 436.465 598.487 448.048C597.47 464.38 584.433 477.125 567.859 477.125C566.745 477.125 565.388 477.077 563.207 476.737L551.188 474.799L548.862 486.817C547.312 495.541 539.897 501.938 530.641 501.938C520.221 501.938 512.031 493.747 512.031 483.328V352.675C522.451 360.623 535.196 365.469 549.25 365.469V340.656C528.557 340.656 512.031 324.131 512.031 303.438V278.625C512.031 264.765 522.984 253.812 536.844 253.812Z" fill="#5500FF"/>
<path d="M56.3466 727.545H88.5909L131.773 832.943H133.477L176.659 727.545H208.903V873H183.619V773.071H182.27L142.071 872.574H123.179L82.9801 772.858H81.6307V873H56.3466V727.545ZM236.46 873V763.909H262.17V873H236.46ZM249.386 748.426C245.314 748.426 241.811 747.077 238.875 744.378C235.939 741.632 234.472 738.341 234.472 734.506C234.472 730.623 235.939 727.332 238.875 724.634C241.811 721.887 245.314 720.514 249.386 720.514C253.506 720.514 257.009 721.887 259.898 724.634C262.833 727.332 264.301 730.623 264.301 734.506C264.301 738.341 262.833 741.632 259.898 744.378C257.009 747.077 253.506 748.426 249.386 748.426ZM314.319 809.08V873H288.609V763.909H313.183V782.446H314.461C316.97 776.338 320.971 771.485 326.464 767.886C332.004 764.288 338.845 762.489 346.989 762.489C354.518 762.489 361.076 764.098 366.663 767.318C372.297 770.538 376.653 775.202 379.731 781.31C382.856 787.418 384.395 794.828 384.347 803.54V873H358.637V807.517C358.637 800.225 356.743 794.52 352.955 790.401C349.215 786.281 344.03 784.222 337.401 784.222C332.903 784.222 328.902 785.216 325.398 787.205C321.942 789.146 319.219 791.963 317.231 795.656C315.29 799.349 314.319 803.824 314.319 809.08ZM450.967 874.918C442.397 874.918 434.726 872.716 427.955 868.312C421.184 863.909 415.834 857.517 411.904 849.136C407.974 840.756 406.009 830.576 406.009 818.597C406.009 806.475 407.998 796.248 411.975 787.915C416 779.534 421.421 773.213 428.239 768.952C435.058 764.643 442.657 762.489 451.038 762.489C457.43 762.489 462.685 763.578 466.805 765.756C470.924 767.886 474.191 770.467 476.606 773.497C479.021 776.48 480.891 779.297 482.217 781.949H483.282V727.545H509.063V873H483.779V855.812H482.217C480.891 858.464 478.973 861.281 476.464 864.264C473.954 867.2 470.64 869.709 466.521 871.793C462.401 873.876 457.217 874.918 450.967 874.918ZM458.14 853.824C463.585 853.824 468.225 852.356 472.06 849.42C475.896 846.437 478.808 842.295 480.796 836.991C482.785 831.688 483.779 825.509 483.779 818.455C483.779 811.4 482.785 805.268 480.796 800.06C478.855 794.851 475.967 790.803 472.131 787.915C468.344 785.027 463.68 783.582 458.14 783.582C452.411 783.582 447.629 785.074 443.793 788.057C439.958 791.04 437.07 795.159 435.129 800.415C433.187 805.67 432.217 811.684 432.217 818.455C432.217 825.273 433.187 831.357 435.129 836.707C437.117 842.01 440.029 846.201 443.864 849.278C447.747 852.309 452.505 853.824 458.14 853.824Z" fill="#5500FF"/>
<path d="M616.645 767.531C615.982 761.329 613.188 756.499 608.264 753.043C603.387 749.586 597.043 747.858 589.23 747.858C583.738 747.858 579.027 748.687 575.097 750.344C571.167 752.001 568.16 754.25 566.077 757.091C563.993 759.932 562.928 763.175 562.881 766.821C562.881 769.851 563.567 772.479 564.94 774.705C566.361 776.93 568.278 778.824 570.693 780.386C573.108 781.902 575.783 783.18 578.719 784.222C581.654 785.263 584.614 786.139 587.597 786.849L601.233 790.259C606.725 791.537 612.005 793.265 617.071 795.443C622.185 797.621 626.754 800.367 630.778 803.682C634.85 806.996 638.07 810.997 640.438 815.685C642.805 820.372 643.989 825.865 643.989 832.162C643.989 840.685 641.811 848.189 637.455 854.676C633.098 861.116 626.801 866.158 618.562 869.804C610.371 873.402 600.452 875.202 588.804 875.202C577.488 875.202 567.663 873.45 559.33 869.946C551.044 866.442 544.557 861.329 539.869 854.605C535.229 847.882 532.72 839.69 532.341 830.031H558.264C558.643 835.098 560.205 839.312 562.952 842.673C565.698 846.035 569.273 848.545 573.676 850.202C578.127 851.859 583.098 852.688 588.591 852.688C594.32 852.688 599.339 851.835 603.648 850.131C608.004 848.379 611.413 845.964 613.875 842.886C616.337 839.761 617.592 836.116 617.639 831.949C617.592 828.161 616.479 825.036 614.301 822.574C612.123 820.064 609.069 817.981 605.139 816.324C601.257 814.619 596.711 813.104 591.503 811.778L574.955 807.517C562.975 804.439 553.506 799.776 546.545 793.526C539.633 787.228 536.176 778.871 536.176 768.455C536.176 759.884 538.496 752.38 543.136 745.94C547.824 739.501 554.192 734.506 562.241 730.955C570.291 727.356 579.405 725.557 589.585 725.557C599.907 725.557 608.951 727.356 616.716 730.955C624.528 734.506 630.66 739.454 635.111 745.798C639.562 752.096 641.858 759.34 642 767.531H616.645ZM697.735 875.202C690.822 875.202 684.596 873.971 679.056 871.509C673.564 868.999 669.208 865.306 665.988 860.429C662.816 855.552 661.229 849.539 661.229 842.389C661.229 836.234 662.366 831.144 664.638 827.119C666.911 823.095 670.013 819.875 673.942 817.46C677.872 815.045 682.299 813.223 687.224 811.991C692.195 810.713 697.333 809.79 702.636 809.222C709.028 808.559 714.212 807.967 718.19 807.446C722.167 806.878 725.055 806.026 726.854 804.889C728.701 803.705 729.624 801.883 729.624 799.42V798.994C729.624 793.644 728.038 789.501 724.866 786.565C721.693 783.63 717.124 782.162 711.158 782.162C704.861 782.162 699.866 783.535 696.173 786.281C692.527 789.027 690.065 792.271 688.786 796.011L664.781 792.602C666.674 785.973 669.799 780.434 674.156 775.983C678.512 771.485 683.838 768.123 690.136 765.898C696.433 763.625 703.393 762.489 711.016 762.489C716.272 762.489 721.504 763.104 726.712 764.335C731.921 765.566 736.679 767.602 740.988 770.443C745.297 773.237 748.753 777.048 751.357 781.878C754.009 786.707 755.335 792.744 755.335 799.989V873H730.619V858.014H729.766C728.204 861.045 726.002 863.885 723.161 866.537C720.368 869.141 716.84 871.248 712.579 872.858C708.365 874.42 703.417 875.202 697.735 875.202ZM704.411 856.31C709.572 856.31 714.047 855.292 717.835 853.256C721.622 851.172 724.534 848.426 726.57 845.017C728.654 841.608 729.695 837.891 729.695 833.866V821.011C728.89 821.674 727.517 822.29 725.576 822.858C723.682 823.426 721.551 823.923 719.184 824.349C716.817 824.776 714.473 825.154 712.153 825.486C709.833 825.817 707.82 826.101 706.116 826.338C702.281 826.859 698.848 827.711 695.817 828.895C692.787 830.079 690.396 831.736 688.644 833.866C686.892 835.95 686.016 838.649 686.016 841.963C686.016 846.698 687.745 850.273 691.201 852.688C694.657 855.102 699.061 856.31 704.411 856.31ZM836.442 763.909V783.795H771.954V763.909H836.442ZM788.076 873V753.611C788.076 746.272 789.591 740.164 792.621 735.287C795.699 730.41 799.818 726.764 804.979 724.349C810.14 721.935 815.87 720.727 822.167 720.727C826.618 720.727 830.571 721.082 834.028 721.793C837.484 722.503 840.041 723.142 841.698 723.71L836.585 743.597C835.496 743.265 834.122 742.934 832.465 742.602C830.808 742.223 828.961 742.034 826.925 742.034C822.143 742.034 818.758 743.194 816.769 745.514C814.828 747.787 813.857 751.054 813.857 755.315V873H788.076ZM900.771 875.131C889.834 875.131 880.388 872.858 872.433 868.312C864.526 863.72 858.442 857.233 854.18 848.852C849.919 840.424 847.788 830.505 847.788 819.094C847.788 807.872 849.919 798.024 854.18 789.548C858.489 781.026 864.502 774.397 872.22 769.662C879.938 764.88 889.005 762.489 899.422 762.489C906.145 762.489 912.49 763.578 918.456 765.756C924.469 767.886 929.772 771.201 934.365 775.699C939.005 780.197 942.651 785.926 945.303 792.886C947.954 799.799 949.28 808.038 949.28 817.602V825.486H859.862V808.156H924.635C924.588 803.232 923.522 798.852 921.439 795.017C919.356 791.134 916.444 788.08 912.703 785.855C909.01 783.63 904.701 782.517 899.777 782.517C894.521 782.517 889.905 783.795 885.928 786.352C881.95 788.862 878.849 792.176 876.624 796.295C874.446 800.367 873.333 804.842 873.286 809.719V824.847C873.286 831.191 874.446 836.636 876.766 841.182C879.086 845.68 882.329 849.136 886.496 851.551C890.662 853.919 895.539 855.102 901.126 855.102C904.867 855.102 908.252 854.581 911.283 853.54C914.313 852.451 916.941 850.865 919.166 848.781C921.392 846.698 923.072 844.117 924.209 841.04L948.214 843.739C946.699 850.083 943.811 855.623 939.55 860.358C935.336 865.045 929.938 868.691 923.357 871.295C916.775 873.852 909.247 875.131 900.771 875.131Z" fill="#14AE5C"/>
</svg>
